# xmcd
#
# Track frame offsets:
#	150
#	16093
#	29892
#	45886
#	63250
#	77709
#	92186
#	110302
#	131064
#	146991
#	162038
#	176870
#	190368
#	208315
#	227067
#	244911
#	267481
#	282265
#	296450
#	314140
#	331939
#
# Disc length: 4609
#
# Revision: 1
# Processed by: cddbd v1.5.1PL0 Copyright (c) Steve Scherf et al.
# Submitted via: CDex 1.40Release
# Normalized: r0:DSETVAR1,TDELIM( - )
#
DISCID=4211ff15
DTITLE=Various Artist - Country Vol II Fall 2002
DYEAR=2002
DGENRE=Country
TTITLE0=Sixwire - Way Too Deep
TTITLE1=Kevin Denney - It'll Go Away
TTITLE2=Holly Lamar - These Are The Days
TTITLE3=Lee Ann Womack - Forever Everyday
TTITLE4=Cyndi Thomson - If You Could Only See
TTITLE5=Toby Keith - Courtesy Of The Red, White And Blue, Angry American
TTITLE6=Tim McGraw - Unbroken
TTITLE7=Sara Evans - I Keep Looking
TTITLE8=Darryl Worley - I Miss My Friend
TTITLE9=Kenny Chesney - Good Stuff
TTITLE10=Mark Wills - 19 Something
TTITLE11=Brad Martin - Rub Me The Right Way
TTITLE12=Mark Chesnutt - I Want My Baby Back
TTITLE13=Josh Turner - She'll Go On You
TTITLE14=Tommy Shane Steiner - What We're Gonna Do About It
TTITLE15=Kid Rock with Sheryl Crow - Pictures
TTITLE16=Eric Heatherly - Last Man Committed
TTITLE17=Daryle Singletary - I'd Love To Lay You Down
TTITLE18=Anthony Smith - John J Blanchard
TTITLE19=Radney Foster - Everyday Angel
TTITLE20=Aaron Tippin - If Her Lovin' Don't Kill Me
EXTD=YEAR: 2002 ID3G: 2
EXTT0=
EXTT1=
EXTT2=
EXTT3=
EXTT4=
EXTT5=
EXTT6=
EXTT7=
EXTT8=
EXTT9=
EXTT10=
EXTT11=
EXTT12=
EXTT13=
EXTT14=
EXTT15=
EXTT16=
EXTT17=
EXTT18=
EXTT19=
EXTT20=
PLAYORDER=
